<svg version="1.0" xmlns="http://www.w3.org/2000/svg" width="933.333" height="933.333" viewBox="0 0 700 700"><path d="M338 64.9c-5.3 1.8-268.7 105.2-278.2 109.3-3.4 1.4-5 2.8-5.7 4.9-1.2 3.6 0 7.3 2.9 8.9 1.9 1 48.5 19.5 138 54.7 19 7.5 34.9 13.9 35.4 14.3.4.5-2.7 28-7 61.6l-7.7 60.7 2.2 1.8c8.6 7 51.1 12.5 105.8 13.7 64.5 1.5 122.3-1.7 150.8-8.4 7.1-1.7 13.9-4.6 15-6.3.4-.7-12.7-107.3-14.8-120.7-.3-2 2.2-3.2 27.2-13 15.2-5.9 32.2-12.7 37.9-15l10.2-4.3v102.7l-2.5.6c-3.5.9-10.2 7.2-12.8 12-2 3.8-2.2 5.8-2.5 26.1-.3 14.1 0 23.9.8 27.2 1.5 7.1 5.7 12.5 12.1 15.7 13.5 6.7 29.2.1 33.5-14.2 1.8-5.8 1.9-42.7.2-50.2-1.3-5.7-6.9-13-11.9-15.6l-2.9-1.5.2-54.1.3-54.2 42.2-16.7c23.2-9.1 42.9-17.2 43.8-17.9 2-1.7 1.9-7.9-.1-10.1-.9-1-13.9-6.6-28.8-12.5s-39-15.4-53.6-21.1c-14.6-5.8-38.9-15.3-54-21.3-95.8-37.7-145-56.9-148.5-57.9-6.2-1.7-21.1-1.3-27.5.8zM77.3 430.1c-7.5 1.6-12.8 6.3-19.5 17.6-12.9 22-13.8 41.8-2.9 63.8 5.6 11.3 11.4 18.5 17.5 21.8l4.1 2.2 89.8.3 89.7.3-3-4.2c-5.3-7.3-4-12.6 5.7-23.1 7.9-8.6 8.5-10.5 7.7-24.9-1-17.3-.6-17.8 17.5-22.3 12-2.9 13.5-4 19.4-14.1 5.2-9 8.3-12.3 12.5-13.5 3.7-1 4.7-.7 18.6 5 9.6 3.9 12 3.7 23.7-1.6 14.2-6.4 18.2-5 26.1 9.3 4.5 8.2 9.2 12.8 14 13.7 15.1 3 17.8 3.8 20.9 6.7l3.2 3-.6 12.4c-.4 6.9-.4 13.8-.1 15.4.4 1.6 2.9 5.6 5.6 8.8 12.1 14.1 12.9 16.6 7.8 24.6l-3 4.7h86.5c57.8 0 88.1-.4 91.4-1.1 9.3-2 15.8-8.6 23.1-23.4 10-20.4 9.1-41.9-2.6-62.7-5.2-9.2-9.8-14.3-15.1-16.9l-4.8-2.4H345.3c-145.9 0-266.5.3-268 .6z"/><path d="M335.6 465.1c-8.2 1.1-18.7 5.3-25.5 10.3-22.7 16.7-30.1 44.3-19.1 71l2.3 5.3-7.6 16.9c-17 38-19.7 44.5-19.7 46.9 0 1.4.9 3 2.3 3.9 2 1.3 3.3 1.2 12.5-1 7.6-1.8 10.8-2.2 12.2-1.4 1.1.6 3.6 4.1 5.6 7.8 6.3 11.3 7.2 12.4 10.7 12 2.9-.3 3.4-1.1 10.1-15.4 3.9-8.2 9.8-21 13.1-28.2l6-13.3 5.5.3 5.4.3 4.2 9.5c4.2 9.2 5.7 12.4 16.3 35.2 7.4 16 9.9 16.3 17.6 2.3 6.3-11.6 6.8-11.9 18-9.5 12 2.7 14.3 2.6 15.7-.5 1.1-2.5.5-4.2-20.5-51.6l-6.4-14.5 1.9-3.8c2.9-5.6 5.8-18.2 5.8-24.9 0-3.4-.7-9-1.6-12.6-7.3-30.2-34.3-48.9-64.8-45zm19.9 13.5c24.4 6.3 39 32.5 31.5 56.7-11.6 37.6-62.8 43.6-82.3 9.6-4.6-8.1-6-14.2-5.5-24.7.3-8.3.8-10.7 3.5-16.5 3.8-8 12.2-17.2 19.2-21 10.1-5.5 22.5-7.1 33.6-4.1z"/></svg>