<svg width="106" height="35" viewBox="0 0 106 35" fill="none" xmlns="http://www.w3.org/2000/svg">
<path d="M20.0417 28.768C19.6897 29.408 19.1777 30.08 18.5057 30.784C17.8337 31.456 17.0497 32.08 16.1537 32.656C15.2578 33.2 14.2657 33.648 13.1777 34C12.0897 34.384 10.9537 34.576 9.76975 34.576C6.92175 34.576 4.69775 33.808 3.09775 32.272C1.52975 30.704 0.745749 28.496 0.745749 25.648C0.745749 23.44 1.09775 21.36 1.80175 19.408C2.50575 17.456 3.48175 15.744 4.72975 14.272C6.00975 12.768 7.51375 11.584 9.24175 10.72C11.0017 9.856 12.9217 9.424 15.0017 9.424C16.9217 9.424 18.5057 9.872 19.7537 10.768C21.0017 11.632 21.6257 12.832 21.6257 14.368C21.6257 16.544 20.5377 18.336 18.3618 19.744C16.2178 21.152 12.7297 22.032 7.89775 22.384C7.80175 22.832 7.72175 23.296 7.65775 23.776C7.62575 24.224 7.60975 24.656 7.60975 25.072C7.60975 26.896 8.07375 28.304 9.00175 29.296C9.92975 30.256 11.1137 30.736 12.5537 30.736C13.1617 30.736 13.7698 30.64 14.3777 30.448C14.9857 30.256 15.5617 30 16.1057 29.68C16.6817 29.36 17.1937 29.024 17.6417 28.672C18.1217 28.288 18.5378 27.92 18.8898 27.568L20.0417 28.768ZM13.8978 12.16C12.8098 12.16 11.7537 12.752 10.7297 13.936C9.73775 15.12 8.90575 17.12 8.23375 19.936C10.6017 19.872 12.5057 19.344 13.9457 18.352C15.4177 17.36 16.1537 16.064 16.1537 14.464C16.1537 13.824 15.9777 13.28 15.6257 12.832C15.3057 12.384 14.7298 12.16 13.8978 12.16Z" fill="#FFC27A"/>
<path d="M21.0344 34L21.3704 32.176C21.9784 31.856 22.6504 31.584 23.3864 31.36C24.1224 31.104 24.8744 30.912 25.6424 30.784L31.4024 3.616C30.6664 3.456 29.9784 3.264 29.3384 3.04C28.7304 2.784 28.2024 2.512 27.7544 2.224L28.1384 0.399998H33.7064C34.2504 0.399998 34.9224 0.383998 35.7224 0.351998C36.5544 0.319999 37.4024 0.287999 38.2664 0.256C39.1624 0.191998 40.0104 0.143998 40.8104 0.111999C41.6424 0.0479994 42.3464 0.0159998 42.9224 0.0159998C45.6104 0.0159998 47.8824 0.303999 49.7384 0.879997C51.6264 1.456 53.1464 2.272 54.2984 3.328C55.4824 4.384 56.3304 5.648 56.8424 7.12C57.3864 8.56 57.6584 10.16 57.6584 11.92C57.6584 13.744 57.4984 15.568 57.1784 17.392C56.8584 19.184 56.3304 20.912 55.5944 22.576C54.8584 24.24 53.9144 25.792 52.7624 27.232C51.6104 28.672 50.1864 29.936 48.4904 31.024C46.8264 32.08 44.8904 32.912 42.6824 33.52C40.4744 34.128 37.9464 34.432 35.0984 34.432C34.6824 34.432 34.1064 34.4 33.3704 34.336C32.6664 34.304 31.8984 34.256 31.0664 34.192C30.2344 34.16 29.4024 34.112 28.5704 34.048C27.7704 34.016 27.0664 34 26.4584 34H21.0344ZM41.8184 3.136C41.2424 3.136 40.6984 3.152 40.1864 3.184C39.6744 3.216 39.1944 3.264 38.7464 3.328L32.8424 31.12C33.3224 31.184 33.8664 31.232 34.4744 31.264C35.0824 31.296 35.5624 31.312 35.9144 31.312C38.5064 31.312 40.6824 30.704 42.4424 29.488C44.2024 28.24 45.6264 26.656 46.7144 24.736C47.8024 22.784 48.5704 20.624 49.0184 18.256C49.4984 15.888 49.7384 13.568 49.7384 11.296C49.7384 9.984 49.6104 8.816 49.3544 7.792C49.0984 6.768 48.6664 5.92 48.0584 5.248C47.4504 4.544 46.6344 4.016 45.6104 3.664C44.5864 3.312 43.3224 3.136 41.8184 3.136ZM78.1244 28.768C77.7724 29.408 77.2604 30.08 76.5884 30.784C75.9164 31.456 75.1324 32.08 74.2364 32.656C73.3404 33.2 72.3484 33.648 71.2604 34C70.1724 34.384 69.0364 34.576 67.8524 34.576C65.0044 34.576 62.7804 33.808 61.1804 32.272C59.6124 30.704 58.8284 28.496 58.8284 25.648C58.8284 23.44 59.1804 21.36 59.8844 19.408C60.5884 17.456 61.5644 15.744 62.8124 14.272C64.0924 12.768 65.5964 11.584 67.3244 10.72C69.0844 9.856 71.0044 9.424 73.0844 9.424C75.0044 9.424 76.5884 9.872 77.8364 10.768C79.0844 11.632 79.7084 12.832 79.7084 14.368C79.7084 16.544 78.6204 18.336 76.4444 19.744C74.3004 21.152 70.8124 22.032 65.9804 22.384C65.8844 22.832 65.8044 23.296 65.7404 23.776C65.7084 24.224 65.6924 24.656 65.6924 25.072C65.6924 26.896 66.1564 28.304 67.0844 29.296C68.0124 30.256 69.1964 30.736 70.6364 30.736C71.2444 30.736 71.8524 30.64 72.4604 30.448C73.0684 30.256 73.6444 30 74.1884 29.68C74.7644 29.36 75.2764 29.024 75.7244 28.672C76.2044 28.288 76.6204 27.92 76.9724 27.568L78.1244 28.768ZM71.9804 12.16C70.8924 12.16 69.8364 12.752 68.8124 13.936C67.8204 15.12 66.9884 17.12 66.3164 19.936C68.6844 19.872 70.5884 19.344 72.0284 18.352C73.5004 17.36 74.2364 16.064 74.2364 14.464C74.2364 13.824 74.0604 13.28 73.7084 12.832C73.3884 12.384 72.8124 12.16 71.9804 12.16ZM89.917 24.304C89.277 25.04 88.589 25.84 87.853 26.704C87.117 27.568 86.541 28.4 86.125 29.2C86.093 29.456 86.077 29.792 86.077 30.208C86.077 30.624 86.093 31.056 86.125 31.504C86.157 31.952 86.189 32.384 86.221 32.8C86.285 33.184 86.349 33.472 86.413 33.664C85.869 33.888 85.229 34.048 84.493 34.144C83.789 34.24 83.085 34.288 82.381 34.288C81.677 34.288 81.021 34.24 80.413 34.144C79.805 34.048 79.325 33.888 78.973 33.664C79.261 32.704 79.805 31.648 80.605 30.496C81.437 29.344 82.349 28.224 83.341 27.136C84.365 26.016 85.389 24.976 86.413 24.016C87.469 23.024 88.365 22.24 89.101 21.664L86.173 13.696L82.861 13.312V11.68C83.309 11.424 83.837 11.168 84.445 10.912C85.085 10.656 85.741 10.432 86.413 10.24C87.085 10.048 87.757 9.888 88.429 9.76C89.133 9.632 89.757 9.568 90.301 9.568C91.133 9.568 91.757 9.792 92.173 10.24C92.621 10.656 92.957 11.216 93.181 11.92L95.341 19.504C95.949 18.864 96.589 18.096 97.261 17.2C97.933 16.304 98.445 15.488 98.797 14.752C98.829 14.528 98.829 14.208 98.797 13.792C98.797 13.376 98.765 12.944 98.701 12.496C98.669 12.016 98.605 11.584 98.509 11.2C98.445 10.784 98.397 10.48 98.365 10.288C99.549 9.872 100.845 9.664 102.253 9.664C102.893 9.664 103.517 9.728 104.125 9.856C104.733 9.952 105.213 10.096 105.565 10.288C105.277 11.248 104.733 12.304 103.933 13.456C103.165 14.608 102.301 15.728 101.341 16.816C100.381 17.904 99.405 18.912 98.413 19.84C97.453 20.736 96.669 21.424 96.061 21.904L99.229 30.304L102.541 30.688V32.32C102.221 32.544 101.773 32.784 101.197 33.04C100.621 33.264 99.997 33.488 99.325 33.712C98.653 33.904 97.965 34.064 97.261 34.192C96.557 34.352 95.917 34.432 95.341 34.432C94.509 34.432 93.853 34.224 93.373 33.808C92.893 33.392 92.541 32.832 92.317 32.128L89.917 24.304Z" fill="white"/>
</svg>
