<svg width="106" height="35" fill="none" xmlns="http://www.w3.org/2000/svg"><path d="M20.042 28.768c-.352.64-.864 1.312-1.536 2.016a14.064 14.064 0 01-2.352 1.872c-.896.544-1.888.992-2.976 1.344a10.164 10.164 0 01-3.408.576c-2.848 0-5.072-.768-6.672-2.304C1.53 30.704.746 28.496.746 25.648c0-2.208.352-4.288 1.056-6.24.704-1.952 1.68-3.664 2.928-5.136a14.238 14.238 0 014.512-3.552c1.76-.864 3.68-1.296 5.76-1.296 1.92 0 3.504.448 4.752 1.344 1.248.864 1.872 2.064 1.872 3.6 0 2.176-1.088 3.968-3.264 5.376-2.144 1.408-5.632 2.288-10.464 2.64-.096.448-.176.912-.24 1.392-.032.448-.048.88-.048 1.296 0 1.824.464 3.232 1.392 4.224.928.96 2.112 1.44 3.552 1.44.608 0 1.216-.096 1.824-.288a8.364 8.364 0 001.728-.768c.576-.32 1.088-.656 1.536-1.008.48-.384.896-.752 1.248-1.104l1.152 1.2zM13.898 12.16c-1.088 0-2.144.592-3.168 1.776-.992 1.184-1.824 3.184-2.496 6 2.368-.064 4.272-.592 5.712-1.584 1.472-.992 2.208-2.288 2.208-3.888 0-.64-.176-1.184-.528-1.632-.32-.448-.896-.672-1.728-.672z" fill="#FFC27A"/><path d="M21.034 34l.336-1.824c.608-.32 1.28-.592 2.016-.816a13.721 13.721 0 012.256-.576l5.76-27.168a17.507 17.507 0 01-2.064-.576 10.393 10.393 0 01-1.584-.816L28.138.4h5.568c.544 0 1.216-.016 2.016-.048l2.544-.096A81.525 81.525 0 0140.81.112a28.253 28.253 0 012.112-.096c2.688 0 4.96.288 6.816.864 1.888.576 3.408 1.392 4.56 2.448a8.948 8.948 0 012.544 3.792c.544 1.44.816 3.04.816 4.8 0 1.824-.16 3.648-.48 5.472a22.585 22.585 0 01-1.584 5.184 21.07 21.07 0 01-2.832 4.656c-1.152 1.44-2.576 2.704-4.272 3.792-1.664 1.056-3.6 1.888-5.808 2.496-2.208.608-4.736.912-7.584.912-.416 0-.992-.032-1.728-.096a74.033 74.033 0 01-2.304-.144 65.226 65.226 0 01-2.496-.144c-.8-.032-1.504-.048-2.112-.048h-5.424zM41.818 3.136c-.576 0-1.12.016-1.632.048-.512.032-.992.08-1.44.144L32.842 31.12c.48.064 1.024.112 1.632.144a28.98 28.98 0 001.44.048c2.592 0 4.768-.608 6.528-1.824a14.52 14.52 0 004.272-4.752c1.088-1.952 1.856-4.112 2.304-6.48.48-2.368.72-4.688.72-6.96 0-1.312-.128-2.48-.384-3.504s-.688-1.872-1.296-2.544c-.608-.704-1.424-1.232-2.448-1.584-1.024-.352-2.288-.528-3.792-.528zm36.306 25.632c-.352.64-.864 1.312-1.536 2.016a14.064 14.064 0 01-2.352 1.872c-.896.544-1.888.992-2.976 1.344a10.164 10.164 0 01-3.408.576c-2.848 0-5.072-.768-6.672-2.304-1.568-1.568-2.352-3.776-2.352-6.624 0-2.208.352-4.288 1.056-6.24.704-1.952 1.68-3.664 2.928-5.136a14.238 14.238 0 014.512-3.552c1.76-.864 3.68-1.296 5.76-1.296 1.92 0 3.504.448 4.752 1.344 1.248.864 1.872 2.064 1.872 3.6 0 2.176-1.088 3.968-3.264 5.376-2.144 1.408-5.632 2.288-10.464 2.64-.096.448-.176.912-.24 1.392-.032.448-.048.88-.048 1.296 0 1.824.464 3.232 1.392 4.224.928.96 2.112 1.44 3.552 1.44.608 0 1.216-.096 1.824-.288a8.364 8.364 0 001.728-.768c.576-.32 1.088-.656 1.536-1.008.48-.384.896-.752 1.248-1.104l1.152 1.2zM71.98 12.16c-1.088 0-2.144.592-3.168 1.776-.992 1.184-1.824 3.184-2.496 6 2.368-.064 4.272-.592 5.712-1.584 1.472-.992 2.208-2.288 2.208-3.888 0-.64-.176-1.184-.528-1.632-.32-.448-.896-.672-1.728-.672zm17.937 12.144a312.43 312.43 0 00-2.064 2.4c-.736.864-1.312 1.696-1.728 2.496a8.467 8.467 0 00-.048 1.008c0 .416.016.848.048 1.296.032.448.064.88.096 1.296.064.384.128.672.192.864-.544.224-1.184.384-1.92.48-.704.096-1.408.144-2.112.144-.704 0-1.36-.048-1.968-.144-.608-.096-1.088-.256-1.44-.48.288-.96.832-2.016 1.632-3.168a38.077 38.077 0 012.736-3.36 56.927 56.927 0 013.072-3.12c1.056-.992 1.952-1.776 2.688-2.352l-2.928-7.968-3.312-.384V11.68c.448-.256.976-.512 1.584-.768.64-.256 1.296-.48 1.968-.672a23.004 23.004 0 012.016-.48 10.605 10.605 0 011.872-.192c.832 0 1.456.224 1.872.672.448.416.784.976 1.008 1.68l2.16 7.584a26.065 26.065 0 001.92-2.304c.672-.896 1.184-1.712 1.536-2.448.032-.224.032-.544 0-.96 0-.416-.032-.848-.096-1.296a7.391 7.391 0 00-.192-1.296c-.064-.416-.112-.72-.144-.912 1.184-.416 2.48-.624 3.888-.624.64 0 1.264.064 1.872.192.608.096 1.088.24 1.44.432-.288.96-.832 2.016-1.632 3.168a31.44 31.44 0 01-2.592 3.36 43.993 43.993 0 01-2.928 3.024c-.96.896-1.744 1.584-2.352 2.064l3.168 8.4 3.312.384v1.632c-.32.224-.768.464-1.344.72-.576.224-1.2.448-1.872.672-.672.192-1.36.352-2.064.48-.704.16-1.344.24-1.92.24-.832 0-1.488-.208-1.968-.624-.48-.416-.832-.976-1.056-1.68l-2.4-7.824z" fill="#fff"/></svg>