<?xml version="1.0" standalone="no"?>
<!DOCTYPE svg PUBLIC "-//W3C//DTD SVG 20010904//EN"
 "http://www.w3.org/TR/2001/REC-SVG-20010904/DTD/svg10.dtd">
<svg version="1.0" xmlns="http://www.w3.org/2000/svg"
 width="700.000000pt" height="700.000000pt" viewBox="0 0 700.000000 700.000000"
 preserveAspectRatio="xMidYMid meet">
<metadata>
Created by potrace 1.14, written by Peter Selinger 2001-2017
</metadata>
<g transform="translate(0.000000,700.000000) scale(0.100000,-0.100000)"
fill="#000000" stroke="none">
<path d="M3380 6351 c-53 -18 -2687 -1052 -2782 -1093 -34 -14 -50 -28 -57
-49 -12 -36 0 -73 29 -89 19 -10 485 -195 1380 -547 190 -75 349 -139 354
-143 4 -5 -27 -280 -70 -616 l-77 -607 22 -18 c86 -70 511 -125 1058 -137 645
-15 1223 17 1508 84 71 17 139 46 150 63 4 7 -127 1073 -148 1207 -3 20 22 32
272 130 152 59 322 127 379 150 l102 43 0 -514 0 -513 -25 -6 c-35 -9 -102
-72 -128 -120 -20 -38 -22 -58 -25 -261 -3 -141 0 -239 8 -272 15 -71 57 -125
121 -157 135 -67 292 -1 335 142 18 58 19 427 2 502 -13 57 -69 130 -119 156
l-29 15 2 541 3 542 422 167 c232 91 429 172 438 179 20 17 19 79 -1 101 -9
10 -139 66 -288 125 -149 59 -390 154 -536 211 -146 58 -389 153 -540 213
-958 377 -1450 569 -1485 579 -62 17 -211 13 -275 -8z"/>
<path d="M773 2699 c-75 -16 -128 -63 -195 -176 -129 -220 -138 -418 -29 -638
56 -113 114 -185 175 -218 l41 -22 898 -3 897 -3 -30 42 c-53 73 -40 126 57
231 79 86 85 105 77 249 -10 173 -6 178 175 223 120 29 135 40 194 141 52 90
83 123 125 135 37 10 47 7 186 -50 96 -39 120 -37 237 16 142 64 182 50 261
-93 45 -82 92 -128 140 -137 151 -30 178 -38 209 -67 l32 -30 -6 -124 c-4 -69
-4 -138 -1 -154 4 -16 29 -56 56 -88 121 -141 129 -166 78 -246 l-30 -47 865
0 c578 0 881 4 914 11 93 20 158 86 231 234 100 204 91 419 -26 627 -52 92
-98 143 -151 169 l-48 24 -2652 0 c-1459 0 -2665 -3 -2680 -6z"/>
<path d="M3356 2349 c-82 -11 -187 -53 -255 -103 -227 -167 -301 -443 -191
-710 l23 -53 -76 -169 c-170 -380 -197 -445 -197 -469 0 -14 9 -30 23 -39 20
-13 33 -12 125 10 76 18 108 22 122 14 11 -6 36 -41 56 -78 63 -113 72 -124
107 -120 29 3 34 11 101 154 39 82 98 210 131 282 l60 133 55 -3 54 -3 42 -95
c42 -92 57 -124 163 -352 74 -160 99 -163 176 -23 63 116 68 119 180 95 120
-27 143 -26 157 5 11 25 5 42 -205 516 l-64 145 19 38 c29 56 58 182 58 249 0
34 -7 90 -16 126 -73 302 -343 489 -648 450z m199 -135 c244 -63 390 -325 315
-567 -116 -376 -628 -436 -823 -96 -46 81 -60 142 -55 247 3 83 8 107 35 165
38 80 122 172 192 210 101 55 225 71 336 41z"/>
</g>
</svg>
